<?xml version="1.0" encoding="utf-8"?>
<!-- Generator: Adobe Illustrator 21.1.0, SVG Export Plug-In . SVG Version: 6.00 Build 0)  -->
<svg version="1.1" id="Layer_1" xmlns="http://www.w3.org/2000/svg" xmlns:xlink="http://www.w3.org/1999/xlink" x="0px" y="0px"
	 viewBox="0 0 1000 1000" style="enable-background:new 0 0 1000 1000;" xml:space="preserve">
<style type="text/css">
	.st0{fill:#FFFFFF;}
</style>
<g>
	<path class="st0" d="M197.7,304.7H47.2C26.7,304.7,10,288,10,267.4s16.7-37.2,37.2-37.2h150.5c20.6,0,37.2,16.7,37.2,37.2
		C235,288,218.3,304.7,197.7,304.7z"/>
	<path class="st0" d="M151.1,472.7H47.2C26.6,472.7,10,456,10,435.5c0-20.6,16.7-37.2,37.2-37.2h103.9c20.6,0,37.2,16.7,37.2,37.2
		C188.3,456.1,171.6,472.7,151.1,472.7z"/>
	<path class="st0" d="M177.5,640.8H47.2c-20.6,0-37.2-16.7-37.2-37.2c0-20.6,16.7-37.2,37.2-37.2h130.3c20.6,0,37.2,16.7,37.2,37.2
		C214.8,624.1,198.1,640.8,177.5,640.8z"/>
	<path class="st0" d="M302.8,808.8H47.2c-20.6,0-37.2-16.7-37.2-37.2s16.7-37.2,37.2-37.2h255.6c20.6,0,37.2,16.7,37.2,37.2
		S323.4,808.8,302.8,808.8z"/>
	<path class="st0" d="M607.6,824.4c-91.7,0-177.9-35.7-242.7-100.5C300,659,264.3,572.9,264.3,481.2S300,303.3,364.8,238.5
		S515.8,138,607.5,138s177.9,35.7,242.7,100.5s100.5,151,100.5,242.7c0,87.3-32.8,170.5-92.5,234.3c-14,15-37.6,15.8-52.6,1.8
		s-15.8-37.6-1.8-52.6c46.7-49.9,72.4-115.1,72.4-183.5c0-148.2-120.6-268.8-268.8-268.8S338.6,333,338.6,481.2S459.2,750,607.4,750
		c38.7,0,76-8,111-23.9c18.7-8.5,40.8-0.2,49.3,18.5s0.2,40.8-18.5,49.3C704.7,814.1,657,824.4,607.6,824.4z"/>
	<path class="st0" d="M952.8,862c-10.1,0-20.2-4.1-27.6-12.2L805,717.4c-13.8-15.2-12.7-38.8,2.6-52.6c15.2-13.8,38.8-12.7,52.6,2.6
		l120.2,132.4c13.8,15.2,12.7,38.8-2.6,52.6C970.7,858.9,961.7,862,952.8,862z"/>
</g>
</svg>
